<svg xmlns="http://www.w3.org/2000/svg" xmlns:xlink="http://www.w3.org/1999/xlink" xmlns:lucid="lucid" width="542.63" height="320.92"><g transform="translate(2.6338582677167324 -0.3333333333333357)" lucid:page-tab-id="0_0"><path d="M85 26.33c0-3.3 2.7-6 6-6h88c3.3 0 6 2.7 6 6v39.34c0 3.3-2.7 6-6 6H91c-3.3 0-6-2.7-6-6z" stroke="#000" stroke-opacity="0" stroke-width="3" fill="#fff" fill-opacity="0"/><use xlink:href="#a" transform="matrix(1,0,0,1,90,25.333333333333336) translate(21.574074074074073 17.77777777777778)"/><use xlink:href="#b" transform="matrix(1,0,0,1,90,25.333333333333336) translate(-9.907407407407412 44.44444444444444)"/><path d="M60 146c0-3.3 2.7-6 6-6h13c3.3 0 6 2.7 6 6v8c0 3.3-2.7 6-6 6H66c-3.3 0-6-2.7-6-6z" stroke="#5e5e5e" stroke-width="3" fill="#fff"/><path d="M206.95 201.8l-33-33.47" stroke="#5e5e5e" stroke-width="2" fill="none"/><path d="M209.05 202.5h-2.8l-.03-.03 1.42-1.4zM174.68 167.64l-1.42 1.4-1.4-1.42h2.8z" fill="#5e5e5e"/><path d="M153 199.26l19.7-30.8" stroke="#5e5e5e" stroke-width="2" fill="none"/><path d="M153.85 199.78l-.2.32h-2.4l.9-1.4zM173.54 169.02l-1.7-1.08.22-.32h2.38z" fill="#5e5e5e"/><path d="M73.23 199.1l-.74-36.6" stroke="#5e5e5e" stroke-width="2" fill="none"/><path d="M74.25 200.1h-2l-.02-1 2-.05zM73.5 162.5l-2 .05-.04-1.05h2z" fill="#5e5e5e"/><path d="M73.18 137.76L114.42 93" stroke="#5e5e5e" stroke-width="2" fill="none"/><path d="M73.93 138.42l-.07.08h-2.72l1.32-1.43zM115.1 93.65l-1.43-1.3 1.43-1.57z" fill="#5e5e5e"/><path d="M147.1 93.12l25.64 42.92" stroke="#5e5e5e" stroke-width="2" fill="none"/><path d="M147.98 92.63l-1.38.82V90.3zM174.4 136.9h-2.3l-.23-.37 1.7-1.02z" fill="#5e5e5e"/><path d="M218.56 185.63l-4.4-5.37M218.55 185.6l.65.8" stroke="#fcc438" stroke-width="2" fill="none"/><path d="M204.46 168.47l12.64 8.07-7.17 5.9z" stroke="#fcc438" stroke-width="2" fill="#fcc438"/><path d="M80.7 119.3l6.22-6.22M80.73 119.27L80 120" stroke="#fcc438" stroke-width="2" fill="none"/><path d="M97.7 102.3l-6.8 13.35-6.55-6.55z" stroke="#fcc438" stroke-width="2" fill="#fcc438"/><path d="M20 86c0-3.3 2.7-6 6-6h68c3.3 0 6 2.7 6 6v28c0 3.3-2.7 6-6 6H26c-3.3 0-6-2.7-6-6z" stroke="#000" stroke-opacity="0" stroke-width="3" fill="#fff" fill-opacity="0"/><use xlink:href="#c" transform="matrix(1,0,0,1,25,85) translate(7.253086419753089 19.65277777777778)"/><path d="M176.6 184.37l15.1 20.14M176.62 184.4l-.62-.83M173.15 196.73l18.47 7.66-2.18-19.9" stroke="#3aa6dd" stroke-width="2" fill="none"/><path d="M100 146c0-3.3 2.7-6 6-6h43c3.3 0 6 2.7 6 6v28c0 3.3-2.7 6-6 6h-43c-3.3 0-6-2.7-6-6z" stroke="#000" stroke-opacity="0" stroke-width="3" fill="#fff" fill-opacity="0"/><use xlink:href="#d" transform="matrix(1,0,0,1,105,145) translate(0.8950617283950635 19.65277777777778)"/><path d="M287.5 66c0-3.3 2.7-6 6-6h108c3.3 0 6 2.7 6 6v104.67c0 3.3-2.7 6-6 6h-108c-3.3 0-6-2.7-6-6z" stroke="#000" stroke-opacity="0" stroke-width="3" fill="#fff" fill-opacity="0"/><use xlink:href="#e" transform="matrix(1,0,0,1,292.5,65.00000000000001) translate(0 24.25347222222222)"/><use xlink:href="#f" transform="matrix(1,0,0,1,292.5,65.00000000000001) translate(0 45.58680555555556)"/><use xlink:href="#g" transform="matrix(1,0,0,1,292.5,65.00000000000001) translate(4.938271604938272 45.58680555555556)"/><use xlink:href="#f" transform="matrix(1,0,0,1,292.5,65.00000000000001) translate(0 66.9201388888889)"/><use xlink:href="#h" transform="matrix(1,0,0,1,292.5,65.00000000000001) translate(4.938271604938272 66.9201388888889)"/><use xlink:href="#i" transform="matrix(1,0,0,1,292.5,65.00000000000001) translate(0 88.25347222222223)"/><use xlink:href="#j" transform="matrix(1,0,0,1,292.5,65.00000000000001) translate(29.629629629629633 88.25347222222223)"/><path d="M440 66c0-3.3 2.7-6 6-6h68c3.3 0 6 2.7 6 6v148c0 3.3-2.7 6-6 6h-68c-3.3 0-6-2.7-6-6z" stroke="#5e5e5e" stroke-width="3" fill="#fff"/><use xlink:href="#k" transform="matrix(1,0,0,1,445,65) translate(6.697530864197532 64.65277777777777)"/><use xlink:href="#l" transform="matrix(1,0,0,1,445,65) translate(19.598765432098766 91.31944444444446)"/><path d="M244.5 31.83c0-3.3 2.7-6 6-6H387c3.3 0 6 2.7 6 6v32.84c0 3.3-2.7 6-6 6H250.5c-3.3 0-6-2.7-6-6z" stroke="#000" stroke-opacity="0" stroke-width="3" fill="#fff" fill-opacity="0"/><use xlink:href="#m" transform="matrix(1,0,0,1,249.5,30.833333333333336) translate(0.3950617283950635 22.15277777777778)"/><use xlink:href="#n" transform="matrix(1,0,0,1,249.5,30.833333333333336) translate(25.08641975308642 22.15277777777778)"/><use xlink:href="#o" transform="matrix(1,0,0,1,249.5,30.833333333333336) translate(83.11111111111111 22.15277777777778)"/><path d="M159.5 81.58l7.75-.18 14.66-.95 29.03-3.13L332.4 59.95l4.48-.3 2.32-.05 2.16.05 2.34.18 2.6.33 3.02.54 3.7.86 5.15 1.47 40.6 13.5 8.2 1.9 7.8 1.4 5.27.66M159.53 81.58l-1.03.02" stroke="#fcc438" stroke-width="2" fill="none"/><path d="M435.27 81.4l-14.52 3.78.56-9.26z" stroke="#fcc438" stroke-width="2" fill="#fcc438"/><path d="M437.5 190.08l-12.54.97-17.1 4.1-2.07.67-2.06.7-2 .7-1.98.7-.98.35-2.04.75-2 .74-1.98.74-.6.22-2.03.74-2 .73-1.97.68-.24.08-2.03.67-2 .63-1.9.54-8.65 1.8-10.25.76-21.1-.56-7.7-.5-13.56-2.72-18.76-5.18-.24-.07-.3-.1-.38-.15-.5-.22-.66-.33-.95-.5-1.4-.86-2.3-1.52-4.32-3.1-10.9-8.62-83.62-69.2-10.94-7.9-6.7-4.4-2.28-1.37" stroke="#3aa6dd" stroke-width="2" fill="none"/><path d="M438.5 191l-.95.08-.15-2 1.1-.08z" fill="#3aa6dd"/><path d="M160.5 94.38l14.96 1.07-3.5 8.6z" stroke="#3aa6dd" stroke-width="2" fill="#3aa6dd"/><path d="M277.5 180.67c0-3.32 2.7-6 6-6H410c3.3 0 6 2.68 6 6V201c0 3.3-2.7 6-6 6H283.5c-3.3 0-6-2.7-6-6z" stroke="#000" stroke-opacity="0" stroke-width="3" fill="#fff" fill-opacity="0"/><use xlink:href="#p" transform="matrix(1,0,0,1,282.5,179.66666666666666) translate(9.561728395061728 17.77777777777778)"/><use xlink:href="#q" transform="matrix(1,0,0,1,282.5,179.66666666666666) translate(34.25308641975309 17.77777777777778)"/><use xlink:href="#r" transform="matrix(1,0,0,1,282.5,179.66666666666666) translate(76.2283950617284 17.77777777777778)"/><path d="M59.5 207.6c0-3.3 2.7-6 6-6H81c3.3 0 6 2.7 6 6v15.72c0 3.3-2.7 6-6 6H65.5c-3.3 0-6-2.7-6-6z" stroke="#5e5e5e" stroke-width="3" fill="#fff"/><use xlink:href="#s" transform="matrix(1,0,0,1,64.50000000000001,206.5999999999999) translate(4.481481481481481 14.222222222222223)"/><path d="M117.1 84.4c0-3.3 2.7-6 6-6h15.5c3.3 0 6 2.7 6 6v15.72c0 3.3-2.7 6-6 6h-15.5c-3.3 0-6-2.7-6-6z" stroke="#5e5e5e" stroke-width="4" fill="#fff"/><use xlink:href="#t" transform="matrix(1,0,0,1,122.10000000000002,83.40000000000009) translate(-0.2901234567901234 17.77777777777778)"/><path d="M159.5 144.4c0-3.3 2.7-6 6-6H181c3.3 0 6 2.7 6 6v15.72c0 3.3-2.7 6-6 6h-15.5c-3.3 0-6-2.7-6-6z" stroke="#5e5e5e" stroke-width="3" fill="#fff"/><use xlink:href="#u" transform="matrix(1,0,0,1,164.5,143.39999999999986) translate(-0.19753086419752997 17.77777777777778)"/><path d="M193.9 210c0-3.3 2.7-6 6-6h15.5c3.3 0 6 2.7 6 6v15.72c0 3.3-2.7 6-6 6h-15.5c-3.3 0-6-2.7-6-6z" stroke="#5e5e5e" stroke-width="3" fill="#fff"/><use xlink:href="#v" transform="matrix(1,0,0,1,198.9,209) translate(-1.9876543209876534 17.77777777777778)"/><path d="M138.7 207.6c0-3.3 2.7-6 6-6h15.5c3.3 0 6 2.7 6 6v15.72c0 3.3-2.7 6-6 6h-15.5c-3.3 0-6-2.7-6-6z" stroke="#5e5e5e" stroke-width="3" fill="#fff"/><path d="M115.62 113.6l-3.8 9.23-5.9 7.48-1.46 1.38-7.88 7.95-1.45 3.1-.13.44-.34 1.52-.25 2.2-.04 3.96 1.44 30.06-.77 6.5-.84 3.77M115.6 113.6l.4-.93" stroke="#3aa6dd" stroke-width="2" fill="none"/><path d="M86.1 172.66l7.95 18.36 12.25-15.8M136.6 124.37l15.1 20.14M136.62 124.4l-.62-.83M133.15 136.73l18.47 7.66-2.18-19.9" stroke="#3aa6dd" stroke-width="2" fill="none"/><path d="M178.56 125.63l-4.4-5.37M178.55 125.6l.65.8" stroke="#fcc438" stroke-width="2" fill="none"/><path d="M164.46 108.47l12.64 8.07-7.17 5.9z" stroke="#fcc438" stroke-width="2" fill="#fcc438"/><path d="M48.5 199.67v-18M48.5 199.64v1.03" stroke="#fcc438" stroke-width="2" fill="none"/><path d="M48.5 166.4l4.64 14.27h-9.28z" stroke="#fcc438" stroke-width="2" fill="#fcc438"/><path d="M340 206c0-3.3 2.7-6 6-6h28c3.3 0 6 2.7 6 6v8c0 3.3-2.7 6-6 6h-28c-3.3 0-6-2.7-6-6z" stroke="#000" stroke-opacity="0" stroke-width="3" fill="#fff" fill-opacity="0"/><use xlink:href="#w" transform="matrix(1,0,0,1,345,205) translate(0 17.77777777777778)"/><use xlink:href="#x" transform="matrix(1,0,0,1,345,205) translate(6.172839506172839 17.77777777777778)"/><path d="M360 226c0-3.3 2.7-6 6-6h28c3.3 0 6 2.7 6 6v8c0 3.3-2.7 6-6 6h-28c-3.3 0-6-2.7-6-6z" stroke="#000" stroke-opacity="0" stroke-width="3" fill="#fff" fill-opacity="0"/><use xlink:href="#y" transform="matrix(1,0,0,1,365,225) translate(0 17.77777777777778)"/><path d="M380 246c0-3.3 2.7-6 6-6h28c3.3 0 6 2.7 6 6v8c0 3.3-2.7 6-6 6h-28c-3.3 0-6-2.7-6-6z" stroke="#000" stroke-opacity="0" stroke-width="3" fill="#fff" fill-opacity="0"/><use xlink:href="#z" transform="matrix(1,0,0,1,385,245) translate(0 17.77777777777778)"/><path d="M328.25 246.5c0-3.3 2.7-6 6-6h7c3.3 0 6 2.7 6 6v8c0 3.3-2.7 6-6 6h-7c-3.3 0-6-2.7-6-6z" stroke="#000" stroke-opacity="0" stroke-width="3" fill="#fff" fill-opacity="0"/><use xlink:href="#A" transform="matrix(1,0,0,1,333.25,245.5) translate(0 17.77777777777778)"/><path d="M399.65 259.65l-19.3-19.3" stroke="#3aa6dd" fill="none"/><path d="M400.7 260h-1.42l.7-.72zM380.72 240l-.7.72-.73-.72h1.4z" fill="#3aa6dd"/><path d="M338.27 254.08l21.46-33.66M338.28 254.07l-.28.43" stroke="#3aa6dd" fill="none"/><path d="M360.15 220.7l-.85-.54.1-.16h1.2z" fill="#3aa6dd"/><path d="M374.14 239.57l-10.9-18.32" stroke="#3aa6dd" fill="none"/><path d="M374.98 240h-1.16l-.1-.18.85-.52zM363.66 221l-.86.52-.2-.34.37-.36.5-.14z" fill="#3aa6dd"/><path d="M17.37 260.25c0-3.3 2.68-6 6-6h216c3.3 0 6 2.7 6 6v35c0 3.3-2.7 6-6 6h-216c-3.32 0-6-2.7-6-6z" stroke="#000" stroke-opacity="0" stroke-width="3" fill="#ffeca9" fill-opacity=".45"/><g><use xlink:href="#B" transform="matrix(1,0,0,1,22.366141732283268,259.25) translate(0 12.979166666666664)"/><use xlink:href="#C" transform="matrix(1,0,0,1,22.366141732283268,259.25) translate(55.55555555555553 12.979166666666664)"/><use xlink:href="#D" transform="matrix(1,0,0,1,22.366141732283268,259.25) translate(68.85185185185182 12.979166666666664)"/><use xlink:href="#E" transform="matrix(1,0,0,1,22.366141732283268,259.25) translate(79.96296296296292 12.979166666666664)"/><use xlink:href="#F" transform="matrix(1,0,0,1,22.366141732283268,259.25) translate(115.51851851851845 12.979166666666664)"/><use xlink:href="#G" transform="matrix(1,0,0,1,22.366141732283268,259.25) translate(0 28.97916666666666)"/><use xlink:href="#H" transform="matrix(1,0,0,1,22.366141732283268,259.25) translate(56.96296296296294 28.97916666666666)"/><use xlink:href="#I" transform="matrix(1,0,0,1,22.366141732283268,259.25) translate(116.88888888888884 28.97916666666666)"/><use xlink:href="#J" transform="matrix(1,0,0,1,22.366141732283268,259.25) translate(133.88888888888883 28.97916666666666)"/><use xlink:href="#K" transform="matrix(1,0,0,1,22.366141732283268,259.25) translate(170.8888888888888 28.97916666666666)"/><use xlink:href="#L" transform="matrix(1,0,0,1,22.366141732283268,259.25) translate(185.62962962962953 28.97916666666666)"/></g><path d="M57 262.92c0-1.1.9-2 2-2h12.5c1.1 0 2 .9 2 2v10.43c0 1.1-.9 2-2 2H59c-1.1 0-2-.9-2-2z" stroke="#5e5e5e" stroke-width="2" fill="#ffeca9" fill-opacity=".45"/><defs><path fill="#333" d="M233-177c-1 41-23 64-60 70L243 0h-38l-65-103H63V0H30v-248c88 3 205-21 203 71zM63-129c60-2 137 13 137-47 0-61-80-42-137-45v92" id="M"/><path fill="#333" d="M100-194c62-1 85 37 85 99 1 63-27 99-86 99S16-35 15-95c0-66 28-99 85-99zM99-20c44 1 53-31 53-75 0-43-8-75-51-75s-53 32-53 75 10 74 51 75" id="N"/><path fill="#333" d="M59-47c-2 24 18 29 38 22v24C64 9 27 4 27-40v-127H5v-23h24l9-43h21v43h35v23H59v120" id="O"/><g id="a"><use transform="matrix(0.06172839506172839,0,0,0.06172839506172839,0,0)" xlink:href="#M"/><use transform="matrix(0.06172839506172839,0,0,0.06172839506172839,15.987654320987653,0)" xlink:href="#N"/><use transform="matrix(0.06172839506172839,0,0,0.06172839506172839,28.333333333333332,0)" xlink:href="#N"/><use transform="matrix(0.06172839506172839,0,0,0.06172839506172839,40.67901234567901,0)" xlink:href="#O"/></g><path fill="#333" d="M96-169c-40 0-48 33-48 73s9 75 48 75c24 0 41-14 43-38l32 2c-6 37-31 61-74 61-59 0-76-41-82-99-10-93 101-131 147-64 4 7 5 14 7 22l-32 3c-4-21-16-35-41-35" id="P"/><path fill="#333" d="M210-169c-67 3-38 105-44 169h-31v-121c0-29-5-50-35-48C34-165 62-65 56 0H25l-1-190h30c1 10-1 24 2 32 10-44 99-50 107 0 11-21 27-35 58-36 85-2 47 119 55 194h-31v-121c0-29-5-49-35-48" id="Q"/><path fill="#333" d="M115-194c55 1 70 41 70 98S169 2 115 4C84 4 66-9 55-30l1 105H24l-1-265h31l2 30c10-21 28-34 59-34zm-8 174c40 0 45-34 45-75s-6-73-45-74c-42 0-51 32-51 76 0 43 10 73 51 73" id="R"/><path fill="#333" d="M117-194c89-4 53 116 60 194h-32v-121c0-31-8-49-39-48C34-167 62-67 57 0H25l-1-190h30c1 10-1 24 2 32 11-22 29-35 61-36" id="S"/><path fill="#333" d="M100-194c63 0 86 42 84 106H49c0 40 14 67 53 68 26 1 43-12 49-29l28 8c-11 28-37 45-77 45C44 4 14-33 15-96c1-61 26-98 85-98zm52 81c6-60-76-77-97-28-3 7-6 17-6 28h103" id="T"/><g id="b"><use transform="matrix(0.06172839506172839,0,0,0.06172839506172839,0,0)" xlink:href="#P"/><use transform="matrix(0.06172839506172839,0,0,0.06172839506172839,11.11111111111111,0)" xlink:href="#N"/><use transform="matrix(0.06172839506172839,0,0,0.06172839506172839,23.45679012345679,0)" xlink:href="#Q"/><use transform="matrix(0.06172839506172839,0,0,0.06172839506172839,41.91358024691358,0)" xlink:href="#R"/><use transform="matrix(0.06172839506172839,0,0,0.06172839506172839,54.25925925925926,0)" xlink:href="#N"/><use transform="matrix(0.06172839506172839,0,0,0.06172839506172839,66.60493827160494,0)" xlink:href="#S"/><use transform="matrix(0.06172839506172839,0,0,0.06172839506172839,78.95061728395062,0)" xlink:href="#T"/><use transform="matrix(0.06172839506172839,0,0,0.06172839506172839,91.2962962962963,0)" xlink:href="#S"/><use transform="matrix(0.06172839506172839,0,0,0.06172839506172839,103.64197530864199,0)" xlink:href="#O"/></g><path fill="#fcc438" d="M133-28C103 26-5 8 13-77c13-62 24-115 90-117 29-1 46 15 56 35 2-12 6-24 8-34h31L144 75h-31zM45-64c-2 27 10 43 35 43 54-1 69-50 69-103 0-29-15-46-42-46-53-1-58 58-62 106" id="U"/><path fill="#fcc438" d="M67 3c-93-2-31-127-26-193h32L48-50c-3 39 53 32 70 12 30-34 30-101 43-152h32L157 0h-30c1-10 6-24 4-33-14 20-29 37-64 36" id="V"/><path fill="#fcc438" d="M111-194c62-3 86 47 72 106H45c-7 38 6 69 45 68 27-1 43-14 53-32l24 11C152-15 129 4 87 4 38 3 12-23 12-71c0-70 32-119 99-123zm44 81c14-66-71-72-95-28-4 8-8 17-11 28h106" id="W"/><path fill="#fcc438" d="M66-151c12-25 30-51 66-40l-6 26C45-176 58-65 38 0H6l36-190h30" id="X"/><path fill="#fcc438" d="M198-190L69 30C53 58 25 83-20 72c4-11-1-27 19-22 33-1 43-29 59-52L20-190h32L79-34l84-156h35" id="Y"/><g id="c"><use transform="matrix(0.06172839506172839,0,0,0.06172839506172839,0,0)" xlink:href="#U"/><use transform="matrix(0.06172839506172839,0,0,0.06172839506172839,12.345679012345679,0)" xlink:href="#V"/><use transform="matrix(0.06172839506172839,0,0,0.06172839506172839,24.691358024691358,0)" xlink:href="#W"/><use transform="matrix(0.06172839506172839,0,0,0.06172839506172839,37.03703703703704,0)" xlink:href="#X"/><use transform="matrix(0.06172839506172839,0,0,0.06172839506172839,44.382716049382715,0)" xlink:href="#Y"/></g><path fill="#3aa6dd" d="M133-28C103 26-5 8 13-77c13-62 24-115 90-117 29-1 46 15 56 35l19-102h32L160 0h-30zM45-64c-2 27 10 43 35 43 54-1 69-50 69-103 0-29-15-46-42-46-53-1-58 58-62 106" id="Z"/><path fill="#3aa6dd" d="M165-48c-4 18 1 34 23 27l-3 20c-29 8-62 0-52-35h-2C116-14 99 4 63 4 30 4 8-16 8-49c0-68 71-67 138-67 10-26 0-56-31-54-26 1-42 9-47 31l-32-5c8-67 160-71 144 15-5 28-9 54-15 81zM42-50c3 52 80 24 89-6 7-12 7-24 11-38-47 1-103-4-100 44" id="aa"/><path fill="#3aa6dd" d="M51-54c-9 22 5 41 31 30L79-1C43 14 10-4 19-52l22-115H19l5-23h22l19-43h21l-9 43h35l-4 23H73" id="ab"/><g id="d"><use transform="matrix(0.06172839506172839,0,0,0.06172839506172839,0,0)" xlink:href="#Z"/><use transform="matrix(0.06172839506172839,0,0,0.06172839506172839,12.345679012345679,0)" xlink:href="#aa"/><use transform="matrix(0.06172839506172839,0,0,0.06172839506172839,24.691358024691358,0)" xlink:href="#ab"/><use transform="matrix(0.06172839506172839,0,0,0.06172839506172839,30.864197530864196,0)" xlink:href="#aa"/></g><path fill="#fcc438" d="M26 75v-336h71v23H56V52h41v23H26" id="ac"/><path fill="#fcc438" d="M151-48c-45 0-84-38-84-83s39-84 84-84 83 39 83 84-38 83-83 83" id="ad"/><g id="e"><use transform="matrix(0.04938271604938272,0,0,0.04938271604938272,0,0)" xlink:href="#ac"/><use transform="matrix(0.04938271604938272,0,0,0.04938271604938272,4.938271604938272,0)" xlink:href="#ad"/></g><path fill="#fcc438" d="M39-94c74 12-11 154 75 146v23c-44 4-70-10-70-52C44-23 55-84 6-82v-22c81 4-7-162 84-157h24v23c-82-15-2 131-75 144" id="ae"/><path fill="#fcc438" d="M141 0L90-78 38 0H4l68-98-65-92h35l48 74 47-74h35l-64 92 68 98h-35" id="af"/><path fill="#fcc438" d="M33-154v-36h34v36H33zM33 0v-36h34V0H33" id="ag"/><path fill="#fcc438" d="M91-215c23 38 52 77 81 110-29 34-58 70-80 109L34-78l-22-27c26-36 57-69 79-110" id="ah"/><path fill="#fcc438" d="M3 75V52h41v-290H3v-23h71V75H3" id="ai"/><path fill="#fcc438" d="M76-40C78 24 84 88 6 75V52C86 64 9-79 80-94c-40-6-34-59-34-106 1-29-11-41-40-38v-23c44-4 70 10 70 52 0 47-12 108 38 105v22c-26 1-39 14-38 42" id="aj"/><g id="g"><use transform="matrix(0.04938271604938272,0,0,0.04938271604938272,0,0)" xlink:href="#ae"/><use transform="matrix(0.04938271604938272,0,0,0.04938271604938272,5.9259259259259265,0)" xlink:href="#af"/><use transform="matrix(0.04938271604938272,0,0,0.04938271604938272,14.814814814814817,0)" xlink:href="#ag"/><use transform="matrix(0.04938271604938272,0,0,0.04938271604938272,19.75308641975309,0)" xlink:href="#ac"/><use transform="matrix(0.04938271604938272,0,0,0.04938271604938272,24.69135802469136,0)" xlink:href="#ah"/><use transform="matrix(0.04938271604938272,0,0,0.04938271604938272,33.7283950617284,0)" xlink:href="#ai"/><use transform="matrix(0.04938271604938272,0,0,0.04938271604938272,38.66666666666667,0)" xlink:href="#aj"/></g><path fill="#fcc438" d="M179-190L93 31C79 59 56 82 12 73V49c39 6 53-20 64-50L1-190h34L92-34l54-156h33" id="ak"/><path fill="#fcc438" d="M33 24v-235h233V24H33" id="al"/><g id="h"><use transform="matrix(0.04938271604938272,0,0,0.04938271604938272,0,0)" xlink:href="#ae"/><use transform="matrix(0.04938271604938272,0,0,0.04938271604938272,5.9259259259259265,0)" xlink:href="#ak"/><use transform="matrix(0.04938271604938272,0,0,0.04938271604938272,14.814814814814817,0)" xlink:href="#ag"/><use transform="matrix(0.04938271604938272,0,0,0.04938271604938272,19.75308641975309,0)" xlink:href="#ac"/><use transform="matrix(0.04938271604938272,0,0,0.04938271604938272,24.69135802469136,0)" xlink:href="#al"/></g><path fill="#fcc438" d="M9 0v-24l116-142H16v-24h144v24L44-24h123V0H9" id="am"/><path fill="#fcc438" d="M73 0l105-211L283 0H73" id="an"/><g id="j"><use transform="matrix(0.04938271604938272,0,0,0.04938271604938272,0,0)" xlink:href="#ae"/><use transform="matrix(0.04938271604938272,0,0,0.04938271604938272,5.9259259259259265,0)" xlink:href="#am"/><use transform="matrix(0.04938271604938272,0,0,0.04938271604938272,14.814814814814817,0)" xlink:href="#ag"/><use transform="matrix(0.04938271604938272,0,0,0.04938271604938272,19.75308641975309,0)" xlink:href="#an"/><use transform="matrix(0.04938271604938272,0,0,0.04938271604938272,37.333333333333336,0)" xlink:href="#aj"/><use transform="matrix(0.04938271604938272,0,0,0.04938271604938272,43.25925925925926,0)" xlink:href="#ai"/><use transform="matrix(0.04938271604938272,0,0,0.04938271604938272,48.19753086419753,0)" xlink:href="#aj"/><use transform="matrix(0.04938271604938272,0,0,0.04938271604938272,54.12345679012345,0)" xlink:href="#ai"/></g><path fill="#333" d="M212-179c-10-28-35-45-73-45-59 0-87 40-87 99 0 60 29 101 89 101 43 0 62-24 78-52l27 14C228-24 195 4 139 4 59 4 22-46 18-125c-6-104 99-153 187-111 19 9 31 26 39 46" id="ao"/><path fill="#333" d="M24 0v-261h32V0H24" id="ap"/><path fill="#333" d="M24-231v-30h32v30H24zM24 0v-190h32V0H24" id="aq"/><g id="k"><use transform="matrix(0.06172839506172839,0,0,0.06172839506172839,0,0)" xlink:href="#ao"/><use transform="matrix(0.06172839506172839,0,0,0.06172839506172839,15.987654320987653,0)" xlink:href="#ap"/><use transform="matrix(0.06172839506172839,0,0,0.06172839506172839,20.864197530864196,0)" xlink:href="#aq"/><use transform="matrix(0.06172839506172839,0,0,0.06172839506172839,25.74074074074074,0)" xlink:href="#T"/><use transform="matrix(0.06172839506172839,0,0,0.06172839506172839,38.08641975308642,0)" xlink:href="#S"/><use transform="matrix(0.06172839506172839,0,0,0.06172839506172839,50.432098765432094,0)" xlink:href="#O"/></g><path fill="#333" d="M30-248c118-7 216 8 213 122C240-48 200 0 122 0H30v-248zM63-27c89 8 146-16 146-99s-60-101-146-95v194" id="ar"/><path fill="#333" d="M160-131c35 5 61 23 61 61C221 17 115-2 30 0v-248c76 3 177-17 177 60 0 33-19 50-47 57zm-97-11c50-1 110 9 110-42 0-47-63-36-110-37v79zm0 115c55-2 124 14 124-45 0-56-70-42-124-44v89" id="as"/><g id="l"><use transform="matrix(0.06172839506172839,0,0,0.06172839506172839,0,0)" xlink:href="#ar"/><use transform="matrix(0.06172839506172839,0,0,0.06172839506172839,15.987654320987653,0)" xlink:href="#as"/></g><path fill="#fcc438" d="M27 0v-27h64v-190l-56 39v-29l58-41h29v221h61V0H27" id="at"/><path fill="#fcc438" d="M33 0v-38h34V0H33" id="au"/><g id="m"><use transform="matrix(0.06172839506172839,0,0,0.06172839506172839,0,0)" xlink:href="#at"/><use transform="matrix(0.06172839506172839,0,0,0.06172839506172839,12.345679012345679,0)" xlink:href="#au"/></g><path fill="#fcc438" d="M185-189c-5-48-123-54-124 2 14 75 158 14 163 119 3 78-121 87-175 55-17-10-28-26-33-46l33-7c5 56 141 63 141-1 0-78-155-14-162-118-5-82 145-84 179-34 5 7 8 16 11 25" id="av"/><path fill="#fcc438" d="M100-194c63 0 86 42 84 106H49c0 40 14 67 53 68 26 1 43-12 49-29l28 8c-11 28-37 45-77 45C44 4 14-33 15-96c1-61 26-98 85-98zm52 81c6-60-76-77-97-28-3 7-6 17-6 28h103" id="aw"/><path fill="#fcc438" d="M117-194c89-4 53 116 60 194h-32v-121c0-31-8-49-39-48C34-167 62-67 57 0H25l-1-190h30c1 10-1 24 2 32 11-22 29-35 61-36" id="ax"/><path fill="#fcc438" d="M85-194c31 0 48 13 60 33l-1-100h32l1 261h-30c-2-10 0-23-3-31C134-8 116 4 85 4 32 4 16-35 15-94c0-66 23-100 70-100zm9 24c-40 0-46 34-46 75 0 40 6 74 45 74 42 0 51-32 51-76 0-42-9-74-50-73" id="ay"/><g id="n"><use transform="matrix(0.06172839506172839,0,0,0.06172839506172839,0,0)" xlink:href="#av"/><use transform="matrix(0.06172839506172839,0,0,0.06172839506172839,14.814814814814813,0)" xlink:href="#aw"/><use transform="matrix(0.06172839506172839,0,0,0.06172839506172839,27.160493827160494,0)" xlink:href="#ax"/><use transform="matrix(0.06172839506172839,0,0,0.06172839506172839,39.50617283950617,0)" xlink:href="#ay"/></g><path fill="#fcc438" d="M145-31C134-9 116 4 85 4 32 4 16-35 15-94c0-59 17-99 70-100 32-1 48 14 60 33 0-11-1-24 2-32h30l-1 268h-32zM93-21c41 0 51-33 51-76s-8-73-50-73c-40 0-46 35-46 75s5 74 45 74" id="az"/><path fill="#fcc438" d="M84 4C-5 8 30-112 23-190h32v120c0 31 7 50 39 49 72-2 45-101 50-169h31l1 190h-30c-1-10 1-25-2-33-11 22-28 36-60 37" id="aA"/><path fill="#fcc438" d="M114-163C36-179 61-72 57 0H25l-1-190h30c1 12-1 29 2 39 6-27 23-49 58-41v29" id="aB"/><g id="o"><use transform="matrix(0.06172839506172839,0,0,0.06172839506172839,0,0)" xlink:href="#az"/><use transform="matrix(0.06172839506172839,0,0,0.06172839506172839,12.345679012345679,0)" xlink:href="#aA"/><use transform="matrix(0.06172839506172839,0,0,0.06172839506172839,24.691358024691358,0)" xlink:href="#aw"/><use transform="matrix(0.06172839506172839,0,0,0.06172839506172839,37.03703703703704,0)" xlink:href="#aB"/><use transform="matrix(0.06172839506172839,0,0,0.06172839506172839,44.382716049382715,0)" xlink:href="#ak"/></g><path fill="#3aa6dd" d="M101-251c82-7 93 87 43 132L82-64C71-53 59-42 53-27h129V0H18c2-99 128-94 128-182 0-28-16-43-45-43s-46 15-49 41l-32-3c6-41 34-60 81-64" id="aC"/><path fill="#3aa6dd" d="M33 0v-38h34V0H33" id="aD"/><g id="p"><use transform="matrix(0.06172839506172839,0,0,0.06172839506172839,0,0)" xlink:href="#aC"/><use transform="matrix(0.06172839506172839,0,0,0.06172839506172839,12.345679012345679,0)" xlink:href="#aD"/></g><path fill="#3aa6dd" d="M143 4C61 4 22-44 18-125c-5-107 100-154 193-111 17 8 29 25 37 43l-32 9c-13-25-37-40-76-40-61 0-88 39-88 99 0 61 29 100 91 101 35 0 62-11 79-27v-45h-74v-28h105v86C228-13 192 4 143 4" id="aE"/><path fill="#3aa6dd" d="M100-194c63 0 86 42 84 106H49c0 40 14 67 53 68 26 1 43-12 49-29l28 8c-11 28-37 45-77 45C44 4 14-33 15-96c1-61 26-98 85-98zm52 81c6-60-76-77-97-28-3 7-6 17-6 28h103" id="aF"/><path fill="#3aa6dd" d="M59-47c-2 24 18 29 38 22v24C64 9 27 4 27-40v-127H5v-23h24l9-43h21v43h35v23H59v120" id="aG"/><g id="q"><use transform="matrix(0.06172839506172839,0,0,0.06172839506172839,0,0)" xlink:href="#aE"/><use transform="matrix(0.06172839506172839,0,0,0.06172839506172839,17.28395061728395,0)" xlink:href="#aF"/><use transform="matrix(0.06172839506172839,0,0,0.06172839506172839,29.629629629629626,0)" xlink:href="#aG"/></g><path fill="#3aa6dd" d="M85-194c31 0 48 13 60 33l-1-100h32l1 261h-30c-2-10 0-23-3-31C134-8 116 4 85 4 32 4 16-35 15-94c0-66 23-100 70-100zm9 24c-40 0-46 34-46 75 0 40 6 74 45 74 42 0 51-32 51-76 0-42-9-74-50-73" id="aH"/><path fill="#3aa6dd" d="M141-36C126-15 110 5 73 4 37 3 15-17 15-53c-1-64 63-63 125-63 3-35-9-54-41-54-24 1-41 7-42 31l-33-3c5-37 33-52 76-52 45 0 72 20 72 64v82c-1 20 7 32 28 27v20c-31 9-61-2-59-35zM48-53c0 20 12 33 32 33 41-3 63-29 60-74-43 2-92-5-92 41" id="aI"/><g id="r"><use transform="matrix(0.06172839506172839,0,0,0.06172839506172839,0,0)" xlink:href="#aH"/><use transform="matrix(0.06172839506172839,0,0,0.06172839506172839,12.345679012345679,0)" xlink:href="#aI"/><use transform="matrix(0.06172839506172839,0,0,0.06172839506172839,24.691358024691358,0)" xlink:href="#aG"/><use transform="matrix(0.06172839506172839,0,0,0.06172839506172839,30.864197530864196,0)" xlink:href="#aI"/></g><use transform="matrix(0.04938271604938272,0,0,0.04938271604938272,0,0)" xlink:href="#ah" id="s"/><use transform="matrix(0.06172839506172839,0,0,0.06172839506172839,0,0)" xlink:href="#ad" id="t"/><use transform="matrix(0.06172839506172839,0,0,0.06172839506172839,0,0)" xlink:href="#al" id="u"/><use transform="matrix(0.06172839506172839,0,0,0.06172839506172839,0,0)" xlink:href="#an" id="v"/><path fill="#3aa6dd" d="M151-48c-45 0-84-38-84-83s39-84 84-84 83 39 83 84-38 83-83 83" id="aJ"/><use transform="matrix(0.06172839506172839,0,0,0.06172839506172839,0,0)" xlink:href="#aJ" id="x"/><path fill="#3aa6dd" d="M33 24v-235h233V24H33" id="aK"/><use transform="matrix(0.06172839506172839,0,0,0.06172839506172839,0,0)" xlink:href="#aK" id="y"/><path fill="#3aa6dd" d="M73 0l105-211L283 0H73" id="aL"/><use transform="matrix(0.06172839506172839,0,0,0.06172839506172839,0,0)" xlink:href="#aL" id="z"/><path fill="#3aa6dd" d="M91-215c23 38 52 77 81 110-29 34-58 70-80 109L34-78l-22-27c26-36 57-69 79-110" id="aM"/><use transform="matrix(0.06172839506172839,0,0,0.06172839506172839,0,0)" xlink:href="#aM" id="A"/><path fill="#333" d="M135-143c-3-34-86-38-87 0 15 53 115 12 119 90S17 21 10-45l28-5c4 36 97 45 98 0-10-56-113-15-118-90-4-57 82-63 122-42 12 7 21 19 24 35" id="aN"/><g id="C"><use transform="matrix(0.03703703703703702,0,0,0.03703703703703702,0,0)" xlink:href="#aq"/><use transform="matrix(0.03703703703703702,0,0,0.03703703703703702,2.9259259259259247,0)" xlink:href="#aN"/></g><path fill="#333" d="M141-36C126-15 110 5 73 4 37 3 15-17 15-53c-1-64 63-63 125-63 3-35-9-54-41-54-24 1-41 7-42 31l-33-3c5-37 33-52 76-52 45 0 72 20 72 64v82c-1 20 7 32 28 27v20c-31 9-61-2-59-35zM48-53c0 20 12 33 32 33 41-3 63-29 60-74-43 2-92-5-92 41" id="aO"/><use transform="matrix(0.03703703703703702,0,0,0.03703703703703702,0,0)" xlink:href="#aO" id="D"/><path fill="#333" d="M133-28C103 26-5 8 13-77c13-62 24-115 90-117 29-1 46 15 56 35l19-102h32L160 0h-30zM45-64c-2 27 10 43 35 43 54-1 69-50 69-103 0-29-15-46-42-46-53-1-58 58-62 106" id="aP"/><path fill="#333" d="M111-194c62-3 86 47 72 106H45c-7 38 6 69 45 68 27-1 43-14 53-32l24 11C152-15 129 4 87 4 38 3 12-23 12-71c0-70 32-119 99-123zm44 81c14-66-71-72-95-28-4 8-8 17-11 28h106" id="aQ"/><path fill="#333" d="M76-167L44 0H12l33-167H18l4-23h27c3-47 25-81 82-69l-4 24c-35-8-44 15-46 45h37l-5 23H76" id="aR"/><path fill="#333" d="M55-144c13 50 104 24 104 88C159 21 15 23 1-39l26-10c6 40 102 42 102-4-13-50-104-23-104-87 0-71 143-71 148-8l-29 4c-5-35-85-37-89 0" id="aS"/><path fill="#333" d="M44-68c0 29 11 47 38 47 30 0 42-19 51-41l28 9C148-21 126 4 82 4 31 4 10-29 12-85c3-77 74-140 146-93 12 8 15 23 18 40l-31 5c-1-22-13-36-36-36-52 0-65 49-65 101" id="aT"/><g id="E"><use transform="matrix(0.03703703703703702,0,0,0.03703703703703702,0,0)" xlink:href="#aP"/><use transform="matrix(0.03703703703703702,0,0,0.03703703703703702,7.407407407407404,0)" xlink:href="#aQ"/><use transform="matrix(0.03703703703703702,0,0,0.03703703703703702,14.814814814814808,0)" xlink:href="#aR"/><use transform="matrix(0.03703703703703702,0,0,0.03703703703703702,18.51851851851851,0)" xlink:href="#aS"/><use transform="matrix(0.03703703703703702,0,0,0.03703703703703702,25.185185185185173,0)" xlink:href="#aT"/></g><g id="F"><use transform="matrix(0.03703703703703702,0,0,0.03703703703703702,0,0)" xlink:href="#P"/><use transform="matrix(0.03703703703703702,0,0,0.03703703703703702,6.666666666666663,0)" xlink:href="#N"/><use transform="matrix(0.03703703703703702,0,0,0.03703703703703702,14.074074074074067,0)" xlink:href="#Q"/><use transform="matrix(0.03703703703703702,0,0,0.03703703703703702,25.148148148148138,0)" xlink:href="#R"/><use transform="matrix(0.03703703703703702,0,0,0.03703703703703702,32.55555555555554,0)" xlink:href="#N"/><use transform="matrix(0.03703703703703702,0,0,0.03703703703703702,39.96296296296295,0)" xlink:href="#S"/><use transform="matrix(0.03703703703703702,0,0,0.03703703703703702,47.37037037037035,0)" xlink:href="#T"/><use transform="matrix(0.03703703703703702,0,0,0.03703703703703702,54.77777777777776,0)" xlink:href="#S"/><use transform="matrix(0.03703703703703702,0,0,0.03703703703703702,62.185185185185155,0)" xlink:href="#O"/></g><path fill="#fcc438" d="M68-38c1 34 0 65-14 84H32c9-13 17-26 17-46H33v-38h35" id="aU"/><g id="G"><use transform="matrix(0.03703703703703702,0,0,0.03703703703703702,0,0)" xlink:href="#ad"/><use transform="matrix(0.03703703703703702,0,0,0.03703703703703702,11.148148148148143,0)" xlink:href="#aU"/><use transform="matrix(0.03703703703703702,0,0,0.03703703703703702,14.851851851851846,0)" xlink:href="#ah"/><use transform="matrix(0.03703703703703702,0,0,0.03703703703703702,21.62962962962962,0)" xlink:href="#aU"/><use transform="matrix(0.03703703703703702,0,0,0.03703703703703702,25.33333333333332,0)" xlink:href="#al"/><use transform="matrix(0.03703703703703702,0,0,0.03703703703703702,36.37037037037035,0)" xlink:href="#aU"/><use transform="matrix(0.03703703703703702,0,0,0.03703703703703702,40.074074074074055,0)" xlink:href="#an"/></g><path fill="#333" d="M114-163C36-179 61-72 57 0H25l-1-190h30c1 12-1 29 2 39 6-27 23-49 58-41v29" id="aV"/><g id="H"><use transform="matrix(0.03703703703703702,0,0,0.03703703703703702,0,0)" xlink:href="#aV"/><use transform="matrix(0.03703703703703702,0,0,0.03703703703703702,4.407407407407406,0)" xlink:href="#T"/><use transform="matrix(0.03703703703703702,0,0,0.03703703703703702,11.81481481481481,0)" xlink:href="#R"/><use transform="matrix(0.03703703703703702,0,0,0.03703703703703702,19.222222222222214,0)" xlink:href="#aV"/><use transform="matrix(0.03703703703703702,0,0,0.03703703703703702,23.62962962962962,0)" xlink:href="#T"/><use transform="matrix(0.03703703703703702,0,0,0.03703703703703702,31.037037037037024,0)" xlink:href="#aN"/><use transform="matrix(0.03703703703703702,0,0,0.03703703703703702,37.70370370370369,0)" xlink:href="#T"/><use transform="matrix(0.03703703703703702,0,0,0.03703703703703702,45.11111111111109,0)" xlink:href="#S"/><use transform="matrix(0.03703703703703702,0,0,0.03703703703703702,52.5185185185185,0)" xlink:href="#O"/></g><g id="I"><use transform="matrix(0.03703703703703702,0,0,0.03703703703703702,0,0)" xlink:href="#aq"/><use transform="matrix(0.03703703703703702,0,0,0.03703703703703702,2.9259259259259247,0)" xlink:href="#O"/><use transform="matrix(0.03703703703703702,0,0,0.03703703703703702,6.629629629629625,0)" xlink:href="#aN"/></g><path fill="#333" d="M145-31C134-9 116 4 85 4 32 4 16-35 15-94c0-59 17-99 70-100 32-1 48 14 60 33 0-11-1-24 2-32h30l-1 268h-32zM93-21c41 0 51-33 51-76s-8-73-50-73c-40 0-46 35-46 75s5 74 45 74" id="aW"/><path fill="#333" d="M84 4C-5 8 30-112 23-190h32v120c0 31 7 50 39 49 72-2 45-101 50-169h31l1 190h-30c-1-10 1-25-2-33-11 22-28 36-60 37" id="aX"/><path fill="#333" d="M179-190L93 31C79 59 56 82 12 73V49c39 6 53-20 64-50L1-190h34L92-34l54-156h33" id="aY"/><g id="J"><use transform="matrix(0.03703703703703702,0,0,0.03703703703703702,0,0)" xlink:href="#aW"/><use transform="matrix(0.03703703703703702,0,0,0.03703703703703702,7.407407407407404,0)" xlink:href="#aX"/><use transform="matrix(0.03703703703703702,0,0,0.03703703703703702,14.814814814814808,0)" xlink:href="#T"/><use transform="matrix(0.03703703703703702,0,0,0.03703703703703702,22.222222222222214,0)" xlink:href="#aV"/><use transform="matrix(0.03703703703703702,0,0,0.03703703703703702,26.629629629629616,0)" xlink:href="#aY"/></g><path fill="#333" d="M87 75C49 33 22-17 22-94c0-76 28-126 65-167h31c-38 41-64 92-64 168S80 34 118 75H87" id="aZ"/><path fill="#333" d="M101-234c-31-9-42 10-38 44h38v23H63V0H32v-167H5v-23h27c-7-52 17-82 69-68v24" id="ba"/><g id="K"><use transform="matrix(0.03703703703703702,0,0,0.03703703703703702,0,0)" xlink:href="#aZ"/><use transform="matrix(0.03703703703703702,0,0,0.03703703703703702,4.407407407407406,0)" xlink:href="#aq"/><use transform="matrix(0.03703703703703702,0,0,0.03703703703703702,7.33333333333333,0)" xlink:href="#ba"/></g><path fill="#333" d="M33-261c38 41 65 92 65 168S71 34 33 75H2C39 34 66-17 66-93S39-220 2-261h31" id="bb"/><g id="L"><use transform="matrix(0.03703703703703702,0,0,0.03703703703703702,0,0)" xlink:href="#aO"/><use transform="matrix(0.03703703703703702,0,0,0.03703703703703702,7.407407407407404,0)" xlink:href="#S"/><use transform="matrix(0.03703703703703702,0,0,0.03703703703703702,14.814814814814808,0)" xlink:href="#aY"/><use transform="matrix(0.03703703703703702,0,0,0.03703703703703702,21.481481481481474,0)" xlink:href="#bb"/></g></defs></g></svg>