<?xml version="1.0" encoding="UTF-8" standalone="no"?>
<!DOCTYPE svg PUBLIC "-//W3C//DTD SVG 1.1//EN"
 "http://www.w3.org/Graphics/SVG/1.1/DTD/svg11.dtd">
<!-- Generated by graphviz version 2.49.2 (20211016.1639)
 -->
<!-- Title: foo Pages: 1 -->
<svg width="330pt" height="305pt"
 viewBox="0.00 0.00 330.00 305.00" xmlns="http://www.w3.org/2000/svg" xmlns:xlink="http://www.w3.org/1999/xlink">
<g id="graph0" class="graph" transform="scale(1 1) rotate(0) translate(4 301)">
<title>foo</title>
<polygon fill="white" stroke="transparent" points="-4,4 -4,-301 326,-301 326,4 -4,4"/>
<!-- Client DB -->
<g id="node1" class="node">
<title>Client DB</title>
<path fill="none" stroke="black" d="M74,-32.73C74,-34.53 57.42,-36 37,-36 16.58,-36 0,-34.53 0,-32.73 0,-32.73 0,-3.27 0,-3.27 0,-1.47 16.58,0 37,0 57.42,0 74,-1.47 74,-3.27 74,-3.27 74,-32.73 74,-32.73"/>
<path fill="none" stroke="black" d="M74,-32.73C74,-30.92 57.42,-29.45 37,-29.45 16.58,-29.45 0,-30.92 0,-32.73"/>
<text text-anchor="middle" x="37" y="-14.3" font-family="Times,serif" font-size="14.00">Client DB</text>
</g>
<!-- TodoItem -->
<g id="node2" class="node">
<title>TodoItem</title>
<path fill="none" stroke="black" d="M60.5,-297C60.5,-297 13.5,-297 13.5,-297 7.5,-297 1.5,-291 1.5,-285 1.5,-285 1.5,-273 1.5,-273 1.5,-267 7.5,-261 13.5,-261 13.5,-261 60.5,-261 60.5,-261 66.5,-261 72.5,-267 72.5,-273 72.5,-273 72.5,-285 72.5,-285 72.5,-291 66.5,-297 60.5,-297"/>
<text text-anchor="middle" x="37" y="-275.3" font-family="Times,serif" font-size="14.00">TodoItem</text>
</g>
<!-- TodoList -->
<g id="node3" class="node">
<title>TodoList</title>
<path fill="none" stroke="black" d="M58.5,-210C58.5,-210 15.5,-210 15.5,-210 9.5,-210 3.5,-204 3.5,-198 3.5,-198 3.5,-186 3.5,-186 3.5,-180 9.5,-174 15.5,-174 15.5,-174 58.5,-174 58.5,-174 64.5,-174 70.5,-180 70.5,-186 70.5,-186 70.5,-198 70.5,-198 70.5,-204 64.5,-210 58.5,-210"/>
<text text-anchor="middle" x="37" y="-188.3" font-family="Times,serif" font-size="14.00">TodoList</text>
</g>
<!-- TodoItem&#45;&gt;TodoList -->
<g id="edge1" class="edge">
<title>TodoItem&#45;&gt;TodoList</title>
<path fill="none" stroke="black" d="M37,-260.8C37,-249.16 37,-233.55 37,-220.24"/>
<polygon fill="black" stroke="black" points="40.5,-220.18 37,-210.18 33.5,-220.18 40.5,-220.18"/>
<text text-anchor="middle" x="143" y="-231.8" font-family="Times,serif" font-size="14.00"> :item/id :item/label :item/complete ...</text>
</g>
<!-- Root -->
<g id="node4" class="node">
<title>Root</title>
<path fill="none" stroke="black" d="M52,-123C52,-123 22,-123 22,-123 16,-123 10,-117 10,-111 10,-111 10,-99 10,-99 10,-93 16,-87 22,-87 22,-87 52,-87 52,-87 58,-87 64,-93 64,-99 64,-99 64,-111 64,-111 64,-117 58,-123 52,-123"/>
<text text-anchor="middle" x="37" y="-101.3" font-family="Times,serif" font-size="14.00">Root</text>
</g>
<!-- TodoList&#45;&gt;Root -->
<g id="edge2" class="edge">
<title>TodoList&#45;&gt;Root</title>
<path fill="none" stroke="black" d="M37,-173.8C37,-162.16 37,-146.55 37,-133.24"/>
<polygon fill="black" stroke="black" points="40.5,-133.18 37,-123.18 33.5,-133.18 40.5,-133.18"/>
<text text-anchor="middle" x="179.5" y="-144.8" font-family="Times,serif" font-size="14.00"> :list/id :list/title {:list/items &lt;TodoItem query&gt;} ...</text>
</g>
<!-- Root&#45;&gt;Client DB -->
<g id="edge3" class="edge">
<title>Root&#45;&gt;Client DB</title>
<path fill="none" stroke="black" d="M37,-86.8C37,-75.16 37,-59.55 37,-46.24"/>
<polygon fill="black" stroke="black" points="40.5,-46.18 37,-36.18 33.5,-46.18 40.5,-46.18"/>
<text text-anchor="middle" x="126" y="-57.8" font-family="Times,serif" font-size="14.00"> {:root/todo &lt;TodoList query&gt;}</text>
</g>
</g>
</svg>
